# File created by Blade
# Date/Time:  Thu Sep 25 15:41:58 2014
# Frame Rate: 120.000 fps
#------------------------------------------------------
:FULLY-SPECIFIED
:DEGREES
505
root -16.346824 36.129437 -0.447738 195.876430 -65.153910 -17.624940
Spine -24.839435 14.934032 -0.697793
Head -77.326062 7.810290 0.230627
LeftShoulder -18.733256 35.886527 10.750318
LeftArm 172.903391 -59.528646 -115.441118
LeftForeArm 7.340835 -0.000000 20.395102
LeftHand -41.294756 -0.000000 85.280991
LeftHandThumb1 -26.253704 0.000000 33.147579
RightShoulder -10.767405 9.674313 -31.119073
RightArm 99.073349 44.172689 56.783446
RightForeArm -11.162694 -0.000000 30.455501
RightHand -6.207549 -0.000000 -74.468939
RightHandThumb1 -24.326973 -0.000000 -32.862282
LeftUpLeg -2.442405 5.099695 11.038376
LeftLeg -1.030091 -0.000000 0.000000
LeftFoot 38.960169 28.208603 -13.445052
LeftToeBase 16.667290 -0.000000 -0.000000
RightUpLeg 5.565716 -29.258398 -7.514393
RightLeg 1.815949 -0.000000 -0.000000
RightFoot 36.430476 7.175308 8.952054
RightToeBase 2.261538 -0.000000 -0.000000
506
root -16.422665 36.161091 -0.460253 195.859367 -65.175689 -17.333446
Spine -24.933021 14.858735 -0.646268
Head -77.523475 7.863559 0.065070
LeftShoulder -18.822979 35.241723 10.923589
LeftArm 172.062189 -60.529993 -114.540810
LeftForeArm 6.600528 -0.000000 19.856719
LeftHand -41.044655 0.000000 85.227721
LeftHandThumb1 -26.253704 0.000000 33.147579
RightShoulder -10.858419 9.923610 -31.286239
RightArm 98.719955 44.122562 56.531323
RightForeArm -10.967048 -0.000000 30.407514
RightHand -6.215967 -0.000000 -74.363876
RightHandThumb1 -24.326973 -0.000000 -32.862282
LeftUpLeg -1.758125 5.237060 11.808657
LeftLeg -0.902207 -0.000000 0.000000
LeftFoot 38.477907 29.017372 -13.239255
LeftToeBase 16.773147 -0.000000 -0.000000
RightUpLeg 5.575027 -29.011465 -8.533716
RightLeg 1.767314 -0.000000 -0.000000
RightFoot 36.372257 7.286554 8.364665
RightToeBase 3.596417 -0.000000 -0.000000
507
root -16.510875 36.196812 -0.471598 196.056831 -65.374740 -17.200661
Spine -25.088361 14.647700 -0.692203
Head -77.735359 7.882945 -0.058301
LeftShoulder -18.991570 34.970672 11.096931
LeftArm 171.589798 -61.142167 -114.113370
LeftForeArm 6.020544 -0.000000 19.572890
LeftHand -40.939529 0.000000 84.733038
LeftHandThumb1 -26.253704 0.000000 33.147579
RightShoulder -11.011539 10.269967 -31.411887
RightArm 98.383126 43.990306 56.259022
RightForeArm -10.790646 -0.000000 30.237396
RightHand -6.168257 -0.000000 -74.285696
RightHandThumb1 -24.326973 -0.000000 -32.862282
LeftUpLeg -1.188789 5.171421 12.604142
LeftLeg -0.916594 -0.000000 0.000000
LeftFoot 38.057794 30.436105 -13.328616
LeftToeBase 16.806728 -0.000000 -0.000000
RightUpLeg 5.528774 -28.890527 -9.554011
RightLeg 1.721695 -0.000000 -0.000000
RightFoot 36.210735 6.976854 7.898827
RightToeBase 3.861391 -0.000000 -0.000000
508
root -16.595374 36.235575 -0.486353 196.200784 -65.682159 -17.066277
Spine -25.164865 14.384395 -0.694878
Head -77.952427 7.868366 -0.170949
LeftShoulder -19.156391 34.985890 11.261044
LeftArm 171.511668 -61.267136 -114.262701
LeftForeArm 5.740818 -0.000000 19.615528
LeftHand -41.044777 -0.000000 84.284657
LeftHandThumb1 -26.253704 0.000000 33.147579
RightShoulder -11.147881 10.347447 -31.421565
RightArm 98.397764 44.101852 56.056821
RightForeArm -10.616517 -0.000000 29.901706
RightHand -6.058516 -0.000000 -74.251347
RightHandThumb1 -24.326973 -0.000000 -32.862282
LeftUpLeg -0.747953 5.648672 13.478997
LeftLeg -0.700317 -0.000000 0.000000
LeftFoot 37.801409 31.563797 -13.408490
LeftToeBase 16.620305 -0.000000 -0.000000
RightUpLeg 5.600855 -28.840808 -10.616818
RightLeg 1.662555 -0.000000 -0.000000
RightFoot 36.111810 6.401961 7.607249
RightToeBase 3.844594 -0.000000 -0.000000
